<svg width="38" height="16" viewBox="0 0 38 16" fill="none" xmlns="http://www.w3.org/2000/svg">
<path d="M1.86253 1.24974C0.862514 1.24974 0.862514 2.74976 1.86253 2.74976H14.1427C15.1427 2.74976 15.1427 1.24974 14.1427 1.24974H1.86253ZM14.1627 7.24984H14.1427H1.86253C0.822516 7.20987 0.822516 8.80983 1.86253 8.74983H14.1427C15.1627 8.7898 15.1827 7.24984 14.1627 7.24984H14.1627ZM1.86253 13.2499C0.862514 13.2499 0.862514 14.7499 1.86253 14.7499H14.1427C15.1427 14.7499 15.1427 13.2499 14.1427 13.2499H1.86253Z" fill="white"/>
<path d="M27.196 13L26.384 10.564H22.66L21.876 13H20.112L23.64 3.298H25.488L29.002 13H27.196ZM23.066 9.318H25.992L24.522 4.838L23.066 9.318ZM32.9131 12.888C32.5678 13.0187 32.1991 13.084 31.8071 13.084C31.2565 13.084 30.8365 12.93 30.5471 12.622C30.2671 12.3047 30.1271 11.8473 30.1271 11.25V2.64H31.7791V11.124C31.7791 11.3573 31.8211 11.5253 31.9051 11.628C31.9985 11.7307 32.1478 11.782 32.3531 11.782C32.5211 11.782 32.7078 11.768 32.9131 11.74V12.888ZM37.1241 12.888C36.7787 13.0187 36.4101 13.084 36.0181 13.084C35.4674 13.084 35.0474 12.93 34.7581 12.622C34.4781 12.3047 34.3381 11.8473 34.3381 11.25V2.64H35.9901V11.124C35.9901 11.3573 36.0321 11.5253 36.1161 11.628C36.2094 11.7307 36.3587 11.782 36.5641 11.782C36.7321 11.782 36.9187 11.768 37.1241 11.74V12.888Z" fill="white"/>
</svg>
