<svg width="390" height="100" viewBox="0 0 390 100" fill="none" xmlns="http://www.w3.org/2000/svg">
<path d="M207.296 88.6522C218.088 60.2602 218.088 64.2592 185.473 64.2592C183.555 63.6592 188.111 60.4602 194.826 59.0605C223.843 54.4618 231.517 57.8608 214.97 83.2538C214.251 83.2538 209.758 91.2516 207.296 88.6522Z" fill="#FF9900"/>
<mask id="mask0_8_81" style="mask-type:luminance" maskUnits="userSpaceOnUse" x="1" y="0" width="335" height="58">
<path d="M44.423 53.4879C44.958 53.2739 45.3861 52.9529 45.3861 52.5248C45.3861 50.3847 42.6039 48.9936 42.6039 38.614V17.9618C42.6039 6.83312 37.5746 0.733755 24.1988 0.733755C15.9593 0.733755 5.36568 3.30191 5.36568 5.76306C5.36568 6.19108 5.47269 6.61911 5.6867 7.04713L7.82683 13.5745C7.93383 14.0025 8.36186 14.6446 8.89689 14.6446C10.288 14.6446 16.1733 11.4344 22.1657 11.4344C28.9071 11.4344 29.7631 14.5376 29.7631 19.3529V22.6701C21.3096 22.6701 1.83447 22.6701 1.83447 40.7541C1.83447 50.8127 8.04084 57.2331 17.8854 57.2331C25.9109 57.2331 29.6561 52.9529 31.7963 50.8127C32.3313 53.4879 33.9364 57.2331 34.8994 57.2331C35.3275 57.2331 35.8625 56.9121 36.2905 56.8051L44.423 53.4879ZM29.7631 43.2153C28.4791 44.4994 25.6969 47.2815 21.7377 47.2815C17.6714 47.2815 14.6752 44.1783 14.6752 40.0051C14.6752 30.5885 27.088 31.4446 29.7631 31.4446V43.2153ZM125.902 17.6408C125.902 8.33121 123.548 0.733755 113.49 0.733755C104.715 0.733755 100.114 5.33503 96.9036 8.1172C95.6195 3.62293 90.5902 0.733755 85.9889 0.733755C77.5354 0.733755 72.8272 5.33503 69.617 8.1172C68.4399 3.0879 67.5838 0.733755 66.1928 0.733755C65.7647 0.733755 65.2297 0.840758 64.5877 1.05477L56.4552 3.72994C55.7061 3.94395 55.2781 4.37197 55.2781 4.90701C55.2781 7.36815 57.3112 6.5121 57.3112 21.6V53.9159C57.3112 55.093 57.5252 55.414 58.8093 55.414H69.4029C70.687 55.414 70.901 55.093 70.901 53.9159V16.3567C72.2921 15.0726 75.8233 11.9694 80.3176 11.9694C84.3838 11.9694 84.8119 16.8917 84.8119 20.958V53.9159C84.8119 55.093 85.0259 55.414 86.31 55.414H96.9036C98.1877 55.414 98.4017 55.093 98.4017 53.9159V16.3567C99.7928 15.0726 103.324 11.9694 107.818 11.9694C111.884 11.9694 112.313 16.8917 112.313 20.958V53.9159C112.313 55.093 112.527 55.414 113.811 55.414H124.404C125.688 55.414 125.902 55.093 125.902 53.9159V17.6408ZM179.226 53.4879C179.761 53.2739 180.189 52.9529 180.189 52.5248C180.189 50.3847 177.407 48.9936 177.407 38.614V17.9618C177.407 6.83312 172.377 0.733755 159.002 0.733755C150.762 0.733755 140.169 3.30191 140.169 5.76306C140.169 6.19108 140.276 6.61911 140.49 7.04713L142.63 13.5745C142.737 14.0025 143.165 14.6446 143.7 14.6446C145.091 14.6446 150.976 11.4344 156.969 11.4344C163.71 11.4344 164.566 14.5376 164.566 19.3529V22.6701C156.113 22.6701 136.637 22.6701 136.637 40.7541C136.637 50.8127 142.844 57.2331 152.688 57.2331C160.714 57.2331 164.459 52.9529 166.599 50.8127C167.134 53.4879 168.739 57.2331 169.702 57.2331C170.13 57.2331 170.665 56.9121 171.093 56.8051L179.226 53.4879ZM164.566 43.2153C163.282 44.4994 160.5 47.2815 156.541 47.2815C152.474 47.2815 149.478 44.1783 149.478 40.0051C149.478 30.5885 161.891 31.4446 164.566 31.4446V43.2153ZM228.283 46.4255C228.39 46.2115 228.711 45.7834 228.711 45.2484C228.711 44.9274 228.711 44.1783 226.678 44.1783H202.28L226.464 11.9694V3.62293C226.464 2.98089 225.501 2.55287 224.645 2.55287H190.723C189.546 2.55287 189.225 2.98089 189.225 4.05096V12.3975C189.225 13.1465 189.439 13.7885 189.974 13.7885H211.59L186.978 46.3185V54.3439C186.978 54.986 187.406 55.414 188.048 55.414C188.048 55.414 198.993 50.7115 206.37 50.8127C213.364 50.9086 223.682 55.414 223.682 55.414C224.11 55.414 224.859 54.879 225.18 54.0229L228.283 46.4255ZM257.687 46.5325C250.196 46.5325 248.912 38.935 248.912 28.9834C248.912 19.0318 250.303 11.4344 257.687 11.4344C265.07 11.4344 266.461 19.0318 266.461 28.9834C266.461 39.042 265.177 46.5325 257.687 46.5325ZM280.907 28.9834C280.907 11.7554 272.026 0.733755 257.687 0.733755C243.241 0.733755 234.466 11.7554 234.466 28.9834C234.466 46.2115 243.241 57.2331 257.687 57.2331C272.133 57.2331 280.907 46.2115 280.907 28.9834ZM335.433 16.3567C335.433 3.40892 327.408 0.733755 321.522 0.733755C313.068 0.733755 308.253 5.33503 305.15 8.1172C303.973 3.0879 303.117 0.733755 301.726 0.733755C301.298 0.733755 300.763 0.840758 300.12 1.05477L291.988 3.72994C291.239 3.94395 290.811 4.37197 290.811 4.90701C290.811 7.36815 292.844 6.5121 292.844 21.6V53.9159C292.844 55.093 293.058 55.414 294.342 55.414H304.936C306.22 55.414 306.434 55.093 306.434 53.9159V16.3567C307.825 15.0726 311.356 11.9694 315.85 11.9694C321.309 11.9694 321.844 16.8917 321.844 20.958V53.9159C321.844 55.093 322.057 55.414 323.341 55.414H333.933C335.22 55.414 335.433 55.093 335.433 53.9159V16.3567Z" fill="white"/>
</mask>
<g mask="url(#mask0_8_81)">
<path d="M44.423 53.4879C44.958 53.2739 45.3861 52.9529 45.3861 52.5248C45.3861 50.3847 42.6039 48.9936 42.6039 38.614V17.9618C42.6039 6.83312 37.5746 0.733755 24.1988 0.733755C15.9593 0.733755 5.36568 3.30191 5.36568 5.76306C5.36568 6.19108 5.47269 6.61911 5.6867 7.04713L7.82683 13.5745C7.93383 14.0025 8.36186 14.6446 8.89689 14.6446C10.288 14.6446 16.1733 11.4344 22.1657 11.4344C28.9071 11.4344 29.7631 14.5376 29.7631 19.3529V22.6701C21.3096 22.6701 1.83447 22.6701 1.83447 40.7541C1.83447 50.8127 8.04084 57.2331 17.8854 57.2331C25.9109 57.2331 29.6561 52.9529 31.7963 50.8127C32.3313 53.4879 33.9364 57.2331 34.8994 57.2331C35.3275 57.2331 35.8625 56.9121 36.2905 56.8051L44.423 53.4879ZM29.7631 43.2153C28.4791 44.4994 25.6969 47.2815 21.7377 47.2815C17.6714 47.2815 14.6752 44.1783 14.6752 40.0051C14.6752 30.5885 27.088 31.4446 29.7631 31.4446V43.2153ZM125.902 17.6408C125.902 8.33121 123.548 0.733755 113.49 0.733755C104.715 0.733755 100.114 5.33503 96.9036 8.1172C95.6195 3.62293 90.5902 0.733755 85.9889 0.733755C77.5354 0.733755 72.8272 5.33503 69.617 8.1172C68.4399 3.0879 67.5838 0.733755 66.1928 0.733755C65.7647 0.733755 65.2297 0.840758 64.5877 1.05477L56.4552 3.72994C55.7061 3.94395 55.2781 4.37197 55.2781 4.90701C55.2781 7.36815 57.3112 6.5121 57.3112 21.6V53.9159C57.3112 55.093 57.5252 55.414 58.8093 55.414H69.4029C70.687 55.414 70.901 55.093 70.901 53.9159V16.3567C72.2921 15.0726 75.8233 11.9694 80.3176 11.9694C84.3838 11.9694 84.8119 16.8917 84.8119 20.958V53.9159C84.8119 55.093 85.0259 55.414 86.31 55.414H96.9036C98.1877 55.414 98.4017 55.093 98.4017 53.9159V16.3567C99.7928 15.0726 103.324 11.9694 107.818 11.9694C111.884 11.9694 112.313 16.8917 112.313 20.958V53.9159C112.313 55.093 112.527 55.414 113.811 55.414H124.404C125.688 55.414 125.902 55.093 125.902 53.9159V17.6408ZM179.226 53.4879C179.761 53.2739 180.189 52.9529 180.189 52.5248C180.189 50.3847 177.407 48.9936 177.407 38.614V17.9618C177.407 6.83312 172.377 0.733755 159.002 0.733755C150.762 0.733755 140.169 3.30191 140.169 5.76306C140.169 6.19108 140.276 6.61911 140.49 7.04713L142.63 13.5745C142.737 14.0025 143.165 14.6446 143.7 14.6446C145.091 14.6446 150.976 11.4344 156.969 11.4344C163.71 11.4344 164.566 14.5376 164.566 19.3529V22.6701C156.113 22.6701 136.637 22.6701 136.637 40.7541C136.637 50.8127 142.844 57.2331 152.688 57.2331C160.714 57.2331 164.459 52.9529 166.599 50.8127C167.134 53.4879 168.739 57.2331 169.702 57.2331C170.13 57.2331 170.665 56.9121 171.093 56.8051L179.226 53.4879ZM164.566 43.2153C163.282 44.4994 160.5 47.2815 156.541 47.2815C152.474 47.2815 149.478 44.1783 149.478 40.0051C149.478 30.5885 161.891 31.4446 164.566 31.4446V43.2153ZM228.283 46.4255C228.39 46.2115 228.711 45.7834 228.711 45.2484C228.711 44.9274 228.711 44.1783 226.678 44.1783H202.28L226.464 11.9694V3.62293C226.464 2.98089 225.501 2.55287 224.645 2.55287H190.723C189.546 2.55287 189.225 2.98089 189.225 4.05096V12.3975C189.225 13.1465 189.439 13.7885 189.974 13.7885H211.59L186.978 46.3185V54.3439C186.978 54.986 187.406 55.414 188.048 55.414C188.048 55.414 198.993 50.7115 206.37 50.8127C213.364 50.9086 223.682 55.414 223.682 55.414C224.11 55.414 224.859 54.879 225.18 54.0229L228.283 46.4255ZM257.687 46.5325C250.196 46.5325 248.912 38.935 248.912 28.9834C248.912 19.0318 250.303 11.4344 257.687 11.4344C265.07 11.4344 266.461 19.0318 266.461 28.9834C266.461 39.042 265.177 46.5325 257.687 46.5325ZM280.907 28.9834C280.907 11.7554 272.026 0.733755 257.687 0.733755C243.241 0.733755 234.466 11.7554 234.466 28.9834C234.466 46.2115 243.241 57.2331 257.687 57.2331C272.133 57.2331 280.907 46.2115 280.907 28.9834ZM335.433 16.3567C335.433 3.40892 327.408 0.733755 321.522 0.733755C313.068 0.733755 308.253 5.33503 305.15 8.1172C303.973 3.0879 303.117 0.733755 301.726 0.733755C301.298 0.733755 300.763 0.840758 300.12 1.05477L291.988 3.72994C291.239 3.94395 290.811 4.37197 290.811 4.90701C290.811 7.36815 292.844 6.5121 292.844 21.6V53.9159C292.844 55.093 293.058 55.414 294.342 55.414H304.936C306.22 55.414 306.434 55.093 306.434 53.9159V16.3567C307.825 15.0726 311.356 11.9694 315.85 11.9694C321.309 11.9694 321.844 16.8917 321.844 20.958V53.9159C321.844 55.093 322.057 55.414 323.341 55.414H333.933C335.22 55.414 335.433 55.093 335.433 53.9159V16.3567Z" fill="white"/>
</g>
<path d="M202.674 70.9624C145.12 94.6092 94.5168 90.1051 40.8732 60.828C38.9181 60.828 38.484 62.4045 40.4388 64.8818C86.9445 109.327 164.684 110.232 205.063 75.2414C206.583 70.9624 202.674 70.9624 202.674 70.9624Z" fill="#FF9900"/>
<path d="M347.68 48.52C346.613 48.52 345.747 48.1867 345.08 47.52C344.413 46.8533 344.08 45.9867 344.08 44.92C344.08 43.8533 344.413 42.9867 345.08 42.32C345.747 41.6533 346.613 41.32 347.68 41.32C348.747 41.32 349.613 41.6533 350.28 42.32C350.947 42.9867 351.28 43.8533 351.28 44.92C351.28 45.9867 350.947 46.8533 350.28 47.52C349.613 48.1867 348.747 48.52 347.68 48.52ZM356.327 48V27.56H362.167V48H356.327ZM359.247 24.4C358.234 24.4 357.421 24.12 356.807 23.56C356.194 23 355.887 22.24 355.887 21.28C355.887 20.32 356.194 19.56 356.807 19C357.421 18.44 358.234 18.16 359.247 18.16C360.261 18.16 361.074 18.44 361.687 19C362.301 19.56 362.607 20.32 362.607 21.28C362.607 22.24 362.301 23 361.687 23.56C361.074 24.12 360.261 24.4 359.247 24.4ZM381.045 48V34.6C381.045 33.5067 380.805 32.7067 380.325 32.2C379.845 31.6933 379.112 31.44 378.125 31.44C376.658 31.44 375.205 31.8933 373.765 32.8V48H367.925V27.56H372.725L373.285 29.76C375.685 27.8933 378.245 26.96 380.965 26.96C382.858 26.96 384.312 27.48 385.325 28.52C386.365 29.5333 386.885 30.9867 386.885 32.88V48H381.045Z" fill="white"/>
</svg>
