<svg width="80" height="60" viewBox="0 0 80 60" fill="none" xmlns="http://www.w3.org/2000/svg">
<path fill-rule="evenodd" clip-rule="evenodd" d="M42.9478 0.880965C42.1348 1.39496 40.9708 3.30097 40.3608 5.11597L39.2518 8.41597L21.0058 8.91597C4.42485 9.36997 2.63085 9.59297 1.34285 11.357C-0.575153 13.985 -0.439154 16.276 1.75485 18.261C3.29785 19.658 6.11485 19.916 19.8198 19.916C36.5048 19.916 39.9258 20.576 39.9258 23.796C39.9258 26.16 43.0248 28.916 45.6828 28.916C50.0819 28.916 50.9258 26.58 50.9258 14.401C50.9258 3.78397 50.7788 2.92596 48.7028 1.47296C46.1528 -0.314035 45.0208 -0.430035 42.9478 0.880965ZM60.1108 9.59997C57.6538 10.583 56.7238 14.959 58.4218 17.551C59.8488 19.728 60.6419 19.916 68.3919 19.916C75.9599 19.916 76.9699 19.691 78.3689 17.693C80.4269 14.756 80.3328 13.323 77.9258 10.916C76.2748 9.26497 74.6588 8.92997 68.6758 8.99497C64.6888 9.03797 60.8338 9.31097 60.1108 9.59997ZM19.1258 32.116C18.4658 32.776 17.9258 33.901 17.9258 34.616C17.9258 37.667 14.0118 39.916 8.67585 39.931C2.48585 39.949 1.30885 40.542 0.418848 44.089C-0.692152 48.516 2.65385 50.916 9.93385 50.916H15.9418L17.5278 54.878C19.3858 59.523 22.0419 60.725 25.4749 58.476C27.8469 56.922 27.9258 56.489 27.9258 45.093C27.9258 32.42 27.3958 30.916 22.9258 30.916C21.4958 30.916 19.7858 31.456 19.1258 32.116ZM37.9258 40.161C34.8478 41.762 34.0188 46.866 36.4428 49.291C37.8298 50.677 40.8558 50.916 56.9968 50.916C74.5928 50.916 76.0668 50.775 77.9258 48.916C80.4248 46.417 80.4448 44.78 78.0158 41.777C76.1548 39.476 75.6488 39.409 58.2658 39.138C45.1078 38.933 39.7698 39.201 37.9258 40.161Z" fill="black"/>
</svg>
