<svg width="52" height="20" viewBox="0 0 52 20" fill="none" xmlns="http://www.w3.org/2000/svg">
<path d="M20 3.3335H0V16.6665H20V3.3335Z" fill="#F0F0F0"/>
<path d="M20 3.3335H0V7.77784H20V3.3335Z" fill="#FF9811"/>
<path d="M20 12.2222H0V16.6665H20V12.2222Z" fill="#6DA544"/>
<path d="M9.99984 11.7147C10.9468 11.7147 11.7145 10.947 11.7145 10C11.7145 9.053 10.9468 8.28531 9.99984 8.28531C9.05285 8.28531 8.28516 9.053 8.28516 10C8.28516 10.947 9.05285 11.7147 9.99984 11.7147Z" fill="#0052B4"/>
<path d="M9.99987 11.0717C10.5917 11.0717 11.0715 10.5919 11.0715 10C11.0715 9.40817 10.5917 8.92838 9.99987 8.92838C9.40802 8.92838 8.92822 9.40817 8.92822 10C8.92822 10.5919 9.40802 11.0717 9.99987 11.0717Z" fill="#F0F0F0"/>
<path d="M9.99977 8.67758L10.3304 9.42739L11.145 9.33879L10.661 10L11.145 10.6612L10.3304 10.5726L9.99977 11.3224L9.66914 10.5726L8.85449 10.6612L9.33855 10L8.85449 9.33879L9.66914 9.42739L9.99977 8.67758Z" fill="#0052B4"/>
<path d="M45 9H51L48 13.5L45 9Z" fill="#A8ACB1"/>
<path d="M23.7855 15V5.208H25.8799V15H23.7855ZM24.7647 15V13.3952H31.0751V15H24.7647ZM24.7647 10.784V9.2064H30.5991V10.784H24.7647ZM24.7647 6.8128V5.208H30.9119V6.8128H24.7647ZM32.2988 15V5.208H35.0052L39.3572 13.8576L38.6908 14.0208V5.208H40.7308V15H38.0244L33.6724 6.3504L34.3388 6.1872V15H32.2988Z" fill="white"/>
</svg>
