<svg width="114" height="20" viewBox="0 0 114 20" fill="none" xmlns="http://www.w3.org/2000/svg">
<path d="M9.68604 2.74549C9.80062 2.56435 9.96865 2.52075 10.103 2.56874L10.1597 2.5951L10.1753 2.60487L10.1929 2.61366C10.246 2.64025 10.2591 2.65353 10.2612 2.65565L10.3022 2.72401L12.4692 7.05702L12.5864 7.29237L12.8472 7.3285L17.5972 7.99549L17.6313 8.00038H17.6665C17.6677 8.00044 17.7183 8.00463 17.7788 8.09022C17.8392 8.17578 17.8534 8.26784 17.8433 8.31874L17.8335 8.36757V8.39882L17.7896 8.42128L17.7339 8.47499L14.3169 11.809L14.1284 11.9935L14.1743 12.2533L15.0063 16.9974V16.9984C15.0413 17.2079 14.9147 17.3695 14.7661 17.4164H14.6665L14.5591 17.4154C14.5461 17.415 14.535 17.4131 14.5259 17.4125L14.4839 17.391L10.2339 15.141L9.99951 15.018L9.76611 15.141L5.51611 17.391L5.49268 17.4047C5.35335 17.4883 5.15524 17.4617 5.02393 17.2592C5.0081 17.2195 5.00142 17.168 5.00049 17.0385L5.82568 12.3363L5.87158 12.0765L5.68213 11.892L2.26904 8.5619C2.13215 8.42402 2.13251 8.24157 2.27002 8.10389L2.32764 8.04628L2.34717 8.00526C2.36142 8.00273 2.3838 8.00038 2.4165 8.00038H2.45166L2.48584 7.99549L7.23584 7.3285L7.50146 7.29139L7.6167 7.05018L9.68604 2.74549Z" fill="#F2A742" stroke="#D27D39"/>
<path d="M33.686 2.74549C33.8006 2.56435 33.9686 2.52075 34.103 2.56874L34.1597 2.5951L34.1753 2.60487L34.1929 2.61366C34.246 2.64025 34.2591 2.65353 34.2612 2.65565L34.3022 2.72401L36.4692 7.05702L36.5864 7.29237L36.8472 7.3285L41.5972 7.99549L41.6313 8.00038H41.6665C41.6677 8.00044 41.7183 8.00463 41.7788 8.09022C41.8392 8.17578 41.8534 8.26784 41.8433 8.31874L41.8335 8.36757V8.39882L41.7896 8.42128L41.7339 8.47499L38.3169 11.809L38.1284 11.9935L38.1743 12.2533L39.0063 16.9974V16.9984C39.0413 17.2079 38.9147 17.3695 38.7661 17.4164H38.6665L38.5591 17.4154C38.5461 17.415 38.535 17.4131 38.5259 17.4125L38.4839 17.391L34.2339 15.141L33.9995 15.018L33.7661 15.141L29.5161 17.391L29.4927 17.4047C29.3533 17.4883 29.1552 17.4617 29.0239 17.2592C29.0081 17.2195 29.0014 17.168 29.0005 17.0385L29.8257 12.3363L29.8716 12.0765L29.6821 11.892L26.269 8.5619C26.1321 8.42402 26.1325 8.24157 26.27 8.10389L26.3276 8.04628L26.3472 8.00526C26.3614 8.00273 26.3838 8.00038 26.4165 8.00038H26.4517L26.4858 7.99549L31.2358 7.3285L31.5015 7.29139L31.6167 7.05018L33.686 2.74549Z" fill="#F2A742" stroke="#D27D39"/>
<path d="M57.686 2.74549C57.8006 2.56435 57.9686 2.52075 58.103 2.56874L58.1597 2.5951L58.1753 2.60487L58.1929 2.61366C58.246 2.64025 58.2591 2.65353 58.2612 2.65565L58.3022 2.72401L60.4692 7.05702L60.5864 7.29237L60.8472 7.3285L65.5972 7.99549L65.6313 8.00038H65.6665C65.6677 8.00044 65.7183 8.00463 65.7788 8.09022C65.8392 8.17578 65.8534 8.26784 65.8433 8.31874L65.8335 8.36757V8.39882L65.7896 8.42128L65.7339 8.47499L62.3169 11.809L62.1284 11.9935L62.1743 12.2533L63.0063 16.9974V16.9984C63.0413 17.2079 62.9147 17.3695 62.7661 17.4164H62.6665L62.5591 17.4154C62.5461 17.415 62.535 17.4131 62.5259 17.4125L62.4839 17.391L58.2339 15.141L57.9995 15.018L57.7661 15.141L53.5161 17.391L53.4927 17.4047C53.3533 17.4883 53.1552 17.4617 53.0239 17.2592C53.0081 17.2195 53.0014 17.168 53.0005 17.0385L53.8257 12.3363L53.8716 12.0765L53.6821 11.892L50.269 8.5619C50.1321 8.42402 50.1325 8.24157 50.27 8.10389L50.3276 8.04628L50.3472 8.00526C50.3614 8.00273 50.3838 8.00038 50.4165 8.00038H50.4517L50.4858 7.99549L55.2358 7.3285L55.5015 7.29139L55.6167 7.05018L57.686 2.74549Z" fill="#F2A742" stroke="#D27D39"/>
<path d="M81.686 2.74549C81.8006 2.56435 81.9686 2.52075 82.103 2.56874L82.1597 2.5951L82.1753 2.60487L82.1929 2.61366C82.246 2.64025 82.2591 2.65353 82.2612 2.65565L82.3022 2.72401L84.4692 7.05702L84.5864 7.29237L84.8472 7.3285L89.5972 7.99549L89.6313 8.00038H89.6665C89.6677 8.00044 89.7183 8.00463 89.7788 8.09022C89.8392 8.17578 89.8534 8.26784 89.8433 8.31874L89.8335 8.36757V8.39882L89.7896 8.42128L89.7339 8.47499L86.3169 11.809L86.1284 11.9935L86.1743 12.2533L87.0063 16.9974V16.9984C87.0413 17.2079 86.9147 17.3695 86.7661 17.4164H86.6665L86.5591 17.4154C86.5461 17.415 86.535 17.4131 86.5259 17.4125L86.4839 17.391L82.2339 15.141L81.9995 15.018L81.7661 15.141L77.5161 17.391L77.4927 17.4047C77.3533 17.4883 77.1552 17.4617 77.0239 17.2592C77.0081 17.2195 77.0014 17.168 77.0005 17.0385L77.8257 12.3363L77.8716 12.0765L77.6821 11.892L74.269 8.5619C74.1321 8.42402 74.1325 8.24157 74.27 8.10389L74.3276 8.04628L74.3472 8.00526C74.3614 8.00273 74.3838 8.00038 74.4165 8.00038H74.4517L74.4858 7.99549L79.2358 7.3285L79.5015 7.29139L79.6167 7.05018L81.686 2.74549Z" fill="#F2A742" stroke="#D27D39"/>
<path d="M105.071 3.356L105.118 3.37846L105.134 3.38823L105.151 3.39702C105.184 3.41323 105.196 3.42269 105.199 3.42534L105.228 3.47319L107.178 7.37358L107.295 7.60893L107.556 7.64507L111.83 8.24467L111.865 8.24956H111.894C111.893 8.2497 111.922 8.25592 111.96 8.3101C111.981 8.33999 111.997 8.3746 112.005 8.40776C112.013 8.44095 112.012 8.46462 112.01 8.4771L112 8.52592V8.52788L111.981 8.53764L111.926 8.59233L108.851 11.5923L108.662 11.7769L108.708 12.0367L109.457 16.3062V16.3072C109.483 16.4655 109.391 16.5857 109.284 16.6246H109.104C109.098 16.6243 109.092 16.6229 109.087 16.6226L109.059 16.608L105.234 14.5835L105 14.4595L104.766 14.5835L100.941 16.608L100.918 16.6216C100.855 16.6595 100.794 16.6631 100.737 16.646C100.681 16.6292 100.619 16.5875 100.568 16.5142C100.558 16.488 100.552 16.4497 100.551 16.3345L101.292 12.1119L101.338 11.8511L101.149 11.6675L98.0771 8.67046C97.9737 8.56599 97.9741 8.43296 98.0781 8.32866L98.1357 8.27104L98.1445 8.25151C98.1529 8.25089 98.1629 8.24956 98.1748 8.24956H98.21L98.2441 8.24467L102.52 7.64507L102.784 7.60796L102.9 7.36674L104.759 3.49956C104.81 3.41747 104.878 3.37187 104.938 3.35405C104.98 3.34123 105.025 3.33963 105.071 3.356Z" stroke="#D27D39"/>
</svg>
