<svg width="97" height="21" viewBox="0 0 97 21" fill="none" xmlns="http://www.w3.org/2000/svg">
<path d="M9.99316 2.83533C10.1285 2.61901 10.3378 2.59086 10.4834 2.6781L10.501 2.68884L10.5186 2.69763C10.572 2.72439 10.5853 2.73801 10.5879 2.7406L10.6318 2.81091L12.8672 7.28259L12.9883 7.52478L13.2568 7.56287L18.1582 8.25037L18.1943 8.25525H18.2305C18.233 8.25545 18.2851 8.2617 18.3467 8.349C18.4088 8.43717 18.4226 8.53191 18.4121 8.58435L18.4023 8.63416V8.66736L18.3574 8.68982L18.2998 8.74548L14.7744 12.1859L14.5791 12.3763L14.626 12.6439L15.4854 17.5404V17.5414C15.5215 17.7581 15.3902 17.9252 15.2363 17.973H15.1348L15.0234 17.9711C15.0095 17.9706 14.9979 17.9688 14.9883 17.9681L14.9463 17.9467L10.5605 15.6244L10.3193 15.4965L10.0771 15.6244L5.69238 17.9467L5.67969 17.9525L5.66797 17.9603C5.52437 18.0464 5.32006 18.0192 5.18457 17.8109C5.16786 17.7696 5.16105 17.7161 5.16016 17.5795L6.01172 12.7299L6.05859 12.4623L5.86328 12.2719L2.3418 8.8363H2.34277C2.20034 8.69387 2.20042 8.50513 2.34277 8.36267L2.40137 8.3031L2.42188 8.26013C2.43657 8.25751 2.4603 8.25525 2.49414 8.25525H2.5293L2.56543 8.25037L7.4668 7.56287L7.74023 7.5238L7.86035 7.27478L9.99316 2.83533Z" fill="#FF6200" stroke="#FF6200" stroke-width="1.03191"/>
<path d="M29.5996 2.83533C29.735 2.61901 29.9442 2.59086 30.0898 2.6781L30.1074 2.68884L30.125 2.69763C30.1784 2.72439 30.1917 2.73801 30.1943 2.7406L30.2383 2.81091L32.4736 7.28259L32.5947 7.52478L32.8633 7.56287L37.7646 8.25037L37.8008 8.25525H37.8369C37.8395 8.25545 37.8915 8.2617 37.9531 8.349C38.0152 8.43717 38.029 8.53191 38.0186 8.58435L38.0088 8.63416V8.66736L37.9639 8.68982L37.9062 8.74548L34.3809 12.1859L34.1855 12.3763L34.2324 12.6439L35.0918 17.5404V17.5414C35.1279 17.7581 34.9967 17.9252 34.8428 17.973H34.7412L34.6299 17.9711C34.6159 17.9706 34.6044 17.9688 34.5947 17.9681L34.5527 17.9467L30.167 15.6244L29.9258 15.4965L29.6836 15.6244L25.2988 17.9467L25.2861 17.9525L25.2744 17.9603C25.1308 18.0464 24.9265 18.0192 24.791 17.8109C24.7743 17.7696 24.7675 17.7161 24.7666 17.5795L25.6182 12.7299L25.665 12.4623L25.4697 12.2719L21.9482 8.8363H21.9492C21.8068 8.69387 21.8069 8.50513 21.9492 8.36267L22.0078 8.3031L22.0283 8.26013C22.043 8.25751 22.0667 8.25525 22.1006 8.25525H22.1357L22.1719 8.25037L27.0732 7.56287L27.3467 7.5238L27.4668 7.27478L29.5996 2.83533Z" fill="#FF6200" stroke="#FF6200" stroke-width="1.03191"/>
<path d="M49.2061 2.83533C49.3414 2.61901 49.5507 2.59086 49.6963 2.6781L49.7139 2.68884L49.7314 2.69763C49.7849 2.72439 49.7982 2.73801 49.8008 2.7406L49.8447 2.81091L52.0801 7.28259L52.2012 7.52478L52.4697 7.56287L57.3711 8.25037L57.4072 8.25525H57.4434C57.4459 8.25545 57.4979 8.2617 57.5596 8.349C57.6216 8.43717 57.6355 8.53191 57.625 8.58435L57.6152 8.63416V8.66736L57.5703 8.68982L57.5127 8.74548L53.9873 12.1859L53.792 12.3763L53.8389 12.6439L54.6982 17.5404V17.5414C54.7344 17.7581 54.6031 17.9252 54.4492 17.973H54.3477L54.2363 17.9711C54.2224 17.9706 54.2108 17.9688 54.2012 17.9681L54.1592 17.9467L49.7734 15.6244L49.5322 15.4965L49.29 15.6244L44.9053 17.9467L44.8926 17.9525L44.8809 17.9603C44.7373 18.0464 44.533 18.0192 44.3975 17.8109C44.3808 17.7696 44.3739 17.7161 44.373 17.5795L45.2246 12.7299L45.2715 12.4623L45.0762 12.2719L41.5547 8.8363H41.5557C41.4132 8.69387 41.4133 8.50513 41.5557 8.36267L41.6143 8.3031L41.6348 8.26013C41.6495 8.25751 41.6732 8.25525 41.707 8.25525H41.7422L41.7783 8.25037L46.6797 7.56287L46.9531 7.5238L47.0732 7.27478L49.2061 2.83533Z" fill="#FF6200" stroke="#FF6200" stroke-width="1.03191"/>
<path d="M68.8125 2.83533C68.9479 2.61901 69.1571 2.59086 69.3027 2.6781L69.3203 2.68884L69.3379 2.69763C69.3913 2.72439 69.4046 2.73801 69.4072 2.7406L69.4512 2.81091L71.6865 7.28259L71.8076 7.52478L72.0762 7.56287L76.9775 8.25037L77.0137 8.25525H77.0498C77.0524 8.25545 77.1044 8.2617 77.166 8.349C77.2281 8.43717 77.2419 8.53191 77.2314 8.58435L77.2217 8.63416V8.66736L77.1768 8.68982L77.1191 8.74548L73.5938 12.1859L73.3984 12.3763L73.4453 12.6439L74.3047 17.5404V17.5414C74.3408 17.7581 74.2095 17.9252 74.0557 17.973H73.9541L73.8428 17.9711C73.8288 17.9706 73.8173 17.9688 73.8076 17.9681L73.7656 17.9467L69.3799 15.6244L69.1387 15.4965L68.8965 15.6244L64.5117 17.9467L64.499 17.9525L64.4873 17.9603C64.3437 18.0464 64.1394 18.0192 64.0039 17.8109C63.9872 17.7696 63.9804 17.7161 63.9795 17.5795L64.8311 12.7299L64.8779 12.4623L64.6826 12.2719L61.1611 8.8363H61.1621C61.0197 8.69387 61.0198 8.50513 61.1621 8.36267L61.2207 8.3031L61.2412 8.26013C61.2559 8.25751 61.2796 8.25525 61.3135 8.25525H61.3486L61.3848 8.25037L66.2861 7.56287L66.5596 7.5238L66.6797 7.27478L68.8125 2.83533Z" fill="#FF6200" stroke="#FF6200" stroke-width="1.03191"/>
<path d="M87.6479 3.46143C87.7067 3.44379 87.7693 3.44772 87.8345 3.48682L87.8511 3.49658L87.8687 3.50537C87.9029 3.52251 87.9156 3.5322 87.9185 3.53467L87.9478 3.58447L89.9595 7.60889L90.0815 7.85107L90.3491 7.88916L94.7612 8.5083L94.7964 8.51318H94.8267C94.8302 8.51428 94.8581 8.52336 94.895 8.57568C94.9167 8.60649 94.9325 8.64212 94.9409 8.67627L94.9458 8.74756L94.936 8.79736V8.80029L94.9165 8.81006L94.8599 8.8667L91.686 11.9624L91.4917 12.1519L91.5386 12.4204L92.312 16.8315C92.3373 16.9944 92.2412 17.1172 92.1304 17.1558H92.0464C92.0064 17.1558 91.9763 17.1557 91.9487 17.1548C91.9416 17.1546 91.9348 17.1531 91.9292 17.1528L91.9009 17.1382L87.9536 15.0483L87.7124 14.9204L87.4712 15.0483L83.5239 17.1382L83.5122 17.145L83.4995 17.1519C83.4345 17.1907 83.3726 17.1948 83.314 17.1772C83.2559 17.1598 83.1912 17.116 83.1392 17.0396C83.1289 17.0126 83.1225 16.9726 83.1216 16.8569L83.8862 12.4976L83.9341 12.23L83.7388 12.0396L80.5688 8.94678C80.4622 8.83894 80.4623 8.70185 80.5698 8.59424L80.6294 8.53467L80.6382 8.51514C80.6468 8.51449 80.6572 8.51319 80.6694 8.51318H80.7056L80.7417 8.5083L85.1528 7.88916L85.4263 7.85107L85.5464 7.60205L87.4653 3.60889C87.5184 3.52579 87.5873 3.47966 87.6479 3.46143Z" stroke="#FF6200" stroke-width="1.03191"/>
</svg>
